<?xml version="1.0" encoding="UTF-8" standalone="no"?>
<!-- Created with Inkscape (http://www.inkscape.org/) -->

<svg
   width="72.3647mm"
   height="72.753616mm"
   viewBox="0 0 72.364702 72.753616"
   version="1.1"
   id="svg5"
   inkscape:version="1.1 (c68e22c387, 2021-05-23)"
   sodipodi:docname="icon-bg.svg"
   xmlns:inkscape="http://www.inkscape.org/namespaces/inkscape"
   xmlns:sodipodi="http://sodipodi.sourceforge.net/DTD/sodipodi-0.dtd"
   xmlns="http://www.w3.org/2000/svg"
   xmlns:svg="http://www.w3.org/2000/svg">
  <sodipodi:namedview
     id="namedview7"
     pagecolor="#505050"
     bordercolor="#ffffff"
     borderopacity="1"
     inkscape:pageshadow="0"
     inkscape:pageopacity="0"
     inkscape:pagecheckerboard="1"
     inkscape:document-units="mm"
     showgrid="false"
     inkscape:zoom="1.6428527"
     inkscape:cx="142.13082"
     inkscape:cy="195.08748"
     inkscape:window-width="1600"
     inkscape:window-height="837"
     inkscape:window-x="-8"
     inkscape:window-y="-8"
     inkscape:window-maximized="1"
     inkscape:current-layer="layer1"
     fit-margin-top="8"
     fit-margin-left="8"
     fit-margin-right="8"
     fit-margin-bottom="8" />
  <defs
     id="defs2" />
  <g
     inkscape:label="Capa 1"
     inkscape:groupmode="layer"
     id="layer1"
     transform="translate(-44.212073,-101.90867)">
    <path
       style="fill:#333333;fill-opacity:1;stroke-width:0.0846667"
       d="m 77.88578,166.16047 c -4.708019,-0.44137 -5.471971,-0.4929 -7.408334,-0.4997 l -2.159,-0.008 -3.948179,-3.4341 -3.948181,-3.43409 -4.088388,-9.87807 c -2.248614,-5.43294 -4.103212,-9.95427 -4.12133,-10.04741 -0.03264,-0.16779 2.657934,-15.79008 2.732276,-15.86442 0.02127,-0.0213 1.138533,-0.48374 2.482809,-1.02773 1.344276,-0.54398 2.57303,-1.08769 2.730565,-1.20825 0.258678,-0.19797 0.38732,-0.48835 1.327835,-2.9974 0.942988,-2.51564 1.135682,-2.95023 2.038956,-4.59853 l 0.997548,-1.82033 3.930044,-0.0423 3.930045,-0.0423 3.498928,-0.67459 3.498927,-0.67458 3.189739,0.79435 c 1.754357,0.43689 3.30404,0.82625 3.44374,0.86523 0.205566,0.0574 0.347569,0.23075 0.74469,0.9092 l 0.49069,0.83831 0.567644,0.049 c 0.312204,0.027 1.615393,0.093 2.895977,0.1468 l 2.328333,0.0978 2.619947,2.10351 2.619946,2.10351 4.111053,1.36782 c 2.26108,0.75231 4.11984,1.37458 4.13059,1.38283 0.0448,0.0344 2.05351,5.77035 2.05412,5.86573 3.4e-4,0.0573 -1.77492,6.81966 -3.94509,15.0274 l -3.94577,14.92315 -2.969076,3.55694 c -1.63299,1.95631 -2.979566,3.57078 -2.992391,3.5877 -0.01282,0.0169 -2.450875,0.7313 -5.41789,1.5875 -3.803225,1.09751 -5.509156,1.55379 -5.783006,1.54676 -0.213638,-0.005 -2.750634,-0.23142 -5.637767,-0.50209 z m 9.974746,-2.49808 c 2.47679,-0.58454 4.581285,-1.09456 4.676655,-1.13339 0.09537,-0.0388 1.569797,-1.67046 3.276505,-3.62585 l 3.103104,-3.55526 1.85935,-6.1674 1.85935,-6.1674 -0.24104,-0.53161 c -0.13258,-0.29239 -0.2623,-0.53161 -0.28828,-0.53161 -0.026,0 -1.04754,0.32631 -2.27014,0.72514 -1.222604,0.39882 -2.377927,0.77515 -2.567385,0.83629 l -0.344469,0.11115 -1.856864,-2.15619 c -1.021276,-1.1859 -1.933574,-2.25078 -2.02733,-2.3664 l -0.170465,-0.2102 -2.809656,0.64793 -2.809657,0.64793 -2.278777,-1.91148 -2.278778,-1.91148 -3.129018,1.58507 -3.129018,1.58506 -0.518806,-0.45124 -0.518806,-0.45125 -2.126669,-0.53295 c -2.047148,-0.51302 -2.416408,-0.62756 -2.066164,-0.6409 0.08925,-0.003 0.363448,-0.0348 0.609322,-0.0698 0.352246,-0.0501 0.810078,0.003 2.159001,0.2505 l 1.711955,0.31413 3.037522,-1.23915 c 2.231716,-0.91043 3.056448,-1.28408 3.108866,-1.40849 0.03924,-0.0931 0.682502,-3.52213 1.429472,-7.62 1.906335,-10.45813 1.979481,-10.83189 2.277317,-11.6367 0.14547,-0.39309 0.264491,-0.7563 0.264491,-0.80712 0,-0.0508 -0.676275,-0.34827 -1.502834,-0.66097 -0.826558,-0.31271 -2.150533,-0.81582 -2.942167,-1.11802 -0.903219,-0.3448 -1.566755,-0.54985 -1.781429,-0.55049 -0.522177,-0.002 -5.479074,0.41558 -5.528772,0.46528 -0.03654,0.0365 -1.44143,9.63944 -1.449962,9.91099 -0.0016,0.0499 0.631858,0.21425 1.41533,0.36725 l 1.418166,0.27695 1.40495,1.44247 1.404948,1.44248 0.357113,3.31261 c 0.196411,1.82193 0.377534,3.44833 0.402496,3.61421 l 0.04538,0.3016 -1.468778,1.0954 -1.468779,1.0954 -1.481667,0.0539 c -0.814917,0.0296 -2.519892,0.0582 -3.788833,0.0635 -1.268942,0.005 -2.307167,0.0399 -2.307167,0.077 0,0.0752 1.942127,6.30967 1.971209,6.32779 0.08282,0.0516 8.62615,6.51359 8.813228,6.66613 l 0.243438,0.1985 -3.321438,7.14961 c -1.826791,3.93229 -3.339237,7.19372 -3.360993,7.24762 -0.02629,0.0651 0.125785,0.11128 0.453334,0.13758 3.913369,0.31417 6.84705,0.48516 9.536302,0.55582 0.367212,0.01 1.634798,-0.25676 4.995333,-1.04988 z m -13.257353,-6.59952 c 2.07214,-3.72534 3.781568,-6.83049 3.798729,-6.90034 0.02117,-0.0862 -1.372686,-1.12078 -4.334421,-3.21733 -2.401093,-1.69968 -4.434983,-3.12304 -4.519755,-3.16302 -0.112626,-0.0531 -0.469895,0.0708 -1.326706,0.46026 -0.644916,0.29313 -1.229724,0.5285 -1.299574,0.52306 -0.141965,-0.0111 -4.744004,-2.0381 -4.853086,-2.13761 -0.03818,-0.0348 1.080795,0.25112 2.486612,0.63546 l 2.556031,0.69878 0.984721,-0.46945 c 0.541597,-0.2582 0.991304,-0.47306 0.999348,-0.47748 0.008,-0.004 -0.434286,-1.51275 -0.982956,-3.35185 l -0.997582,-3.34382 -1.218378,-0.98222 -1.218377,-0.98222 -1.058333,-2.35721 c -1.158991,-2.58141 -1.194318,-2.66335 -1.148266,-2.66335 0.01739,0 0.596995,0.99429 1.288021,2.20952 l 1.256409,2.20953 0.804752,0.50037 c 0.58234,0.36208 0.858798,0.48772 1.000311,0.45459 0.107558,-0.0252 2.022086,0.0534 4.254505,0.17456 l 4.058945,0.22033 1.229964,-0.90659 c 0.67648,-0.49863 1.248673,-0.93687 1.271541,-0.97387 0.02287,-0.037 -0.07342,-1.15779 -0.213969,-2.49064 -0.14055,-1.33286 -0.255546,-2.56769 -0.255546,-2.74407 0,-0.3013 -0.07559,-0.39483 -1.250356,-1.54707 l -1.250356,-1.22639 -6.266135,-1.24213 c -3.446374,-0.68318 -6.342537,-1.24214 -6.435917,-1.24214 -0.197216,0 -4.891397,2.07356 -4.924752,2.17541 -0.0123,0.0375 -0.629128,3.28666 -1.37074,7.22026 l -1.348385,7.152 2.990835,7.66466 c 1.644959,4.21557 3.054903,7.82438 3.133209,8.01958 0.115516,0.28796 0.320695,0.49007 1.087652,1.07142 l 0.945278,0.71652 2.22888,0.73547 c 1.225886,0.40451 2.21573,0.74863 2.199654,0.7647 -0.01608,0.0161 -1.076221,-0.13969 -2.355881,-0.34615 -1.279659,-0.20646 -2.374278,-0.37549 -2.432487,-0.37562 -0.05919,-1.7e-4 -0.105833,0.10286 -0.105833,0.2337 0,0.27337 0.281242,0.50993 1.989667,1.67352 1.659179,1.13006 2.194906,1.55119 4.683634,3.68178 0.655382,0.56107 0.740652,0.60781 1.227667,0.67286 0.287851,0.0385 0.613486,0.0644 0.723632,0.0577 0.174276,-0.0106 0.689228,-0.89124 3.967794,-6.7855 z m 25.422937,-15.62236 c 1.23402,-0.2866 2.25372,-0.53107 2.266,-0.54325 0.0123,-0.0122 0.46127,-1.44721 0.99775,-3.18894 0.53649,-1.74173 1.43077,-4.63952 1.9873,-6.43952 l 1.01187,-3.27273 -1.00547,-2.59523 c -0.55301,-1.42737 -1.01919,-2.60739 -1.03596,-2.62226 -0.0813,-0.0721 -5.774151,-2.16427 -5.80504,-2.13338 -0.03502,0.035 -1.244837,4.79734 -3.420063,13.46271 l -1.102597,4.39238 1.804274,1.7618 c 1.073414,1.04814 1.855718,1.74918 1.931274,1.73066 0.06985,-0.0171 1.13665,-0.26563 2.370662,-0.55224 z m -9.616361,-3.2673 c 1.260984,-0.35419 2.300396,-0.65081 2.309805,-0.65916 0.08482,-0.0753 4.677125,-17.36009 4.624583,-17.40632 -0.03833,-0.0337 -1.02219,-0.85453 -2.186356,-1.82403 -1.164167,-0.96949 -2.175995,-1.81262 -2.248507,-1.87362 -0.0965,-0.0812 -0.945762,-0.14534 -3.168142,-0.23936 -1.669966,-0.0707 -3.041887,-0.11902 -3.048714,-0.10749 -0.0068,0.0115 -0.194279,0.62961 -0.416561,1.3735 -0.359029,1.20154 -0.511405,2.01445 -1.364841,7.28134 -1.522146,9.39375 -1.674685,10.39932 -1.595279,10.51649 0.09936,0.14662 4.624988,3.57682 4.723345,3.58007 0.04288,0.001 1.109683,-0.28722 2.370667,-0.64142 z M 72.117506,118.4651 c 0.459649,-2.59435 0.815331,-4.7374 0.790403,-4.76233 -0.04197,-0.042 -3.630765,0.0646 -6.34979,0.18859 l -1.167661,0.0532 -1.060776,1.78448 -1.060776,1.78448 -0.42113,1.86766 c -0.231622,1.0272 -0.428975,1.92334 -0.438563,1.99142 -0.01379,0.0979 0.893061,0.30361 4.3429,0.985 2.398183,0.47367 4.398433,0.85295 4.445,0.84284 0.04657,-0.0101 0.460743,-2.14103 0.920393,-4.73538 z"
       id="path1212"
       inkscape:export-filename="C:\Users\user\Downloads\Facultad\7mo\GCW\UI separado\icon-bg.png"
       inkscape:export-xdpi="95.725197"
       inkscape:export-ydpi="95.725197" />
  </g>
</svg>
